<svg version="1.2" xmlns="http://www.w3.org/2000/svg" viewBox="0 0 1440 1008" width="1440" height="1008">
	<title>14-ai</title>
	<style>
		.s0 { fill: #f4f4f4 } 
		.s1 { fill: #e2e0e0 } 
		.s2 { fill: #cdcbc4 } 
		.s3 { fill: #ffffff } 
		.s4 { fill: #99887f } 
		.s5 { fill: #ad9b90 } 
		.s6 { fill: #dfdfdf } 
		.s7 { opacity: .8;fill: #c6c6c6 } 
		.s8 { fill: #cfbeb1 } 
		.s9 { fill: #bfada1 } 
		.s10 { fill: #020202 } 
		.s11 { fill: #e0cdcc } 
		.s12 { fill: #d9c2bf } 
		.s13 { fill: #ad8779 } 
		.s14 { fill: #e8dfe1 } 
		.s15 { fill: #efe1e1 } 
		.s16 { opacity: .2;fill: #636363 } 
		.s17 { opacity: .1;fill: #636363 } 
		.s18 { fill: #70615a } 
		.s19 { fill: #dddddd } 
		.s20 { fill: #e9ebec } 
		.s21 { fill: #c5a497 } 
		.s22 { fill: #476348 } 
		.s23 { fill: #507153 } 
		.s24 { fill: #283c35 } 
		.s25 { fill: #21302a } 
		.s26 { fill: #774a3c } 
		.s27 { fill: #b27454 } 
		.s28 { fill: #845340 } 
		.s29 { fill: #e5e5e5 } 
		.s30 { fill: #b0aeb7 } 
		.s31 { fill: #c2bfcb } 
		.s32 { fill: #293f3a } 
		.s33 { fill: #223428 } 
		.s34 { fill: #1a2824 } 
		.s35 { fill: #1f302c } 
		.s36 { fill: #0b210f } 
		.s37 { fill: #638170 } 
		.s38 { fill: #0f2e17 } 
		.s39 { fill: #08190a } 
		.s40 { fill: #091e0c } 
		.s41 { fill: #415942 } 
		.s42 { fill: #445e45 } 
		.s43 { fill: #5e615d } 
		.s44 { fill: #777e52 } 
		.s45 { fill: #6e724c } 
		.s46 { fill: #4b664c } 
		.s47 { fill: #5a7565 } 
		.s48 { fill: #7a9987 } 
		.s49 { fill: #c6c6c6 } 
		.s50 { opacity: .2;fill: #5c5c40 } 
		.s51 { fill: #eaeaea } 
		.s52 { fill: #3a3a3a } 
		.s53 { fill: #727272 } 
		.s54 { fill: #111111 } 
		.s55 { opacity: .7;fill: #c6c6c6 } 
		.s56 { fill: #ded5c6 } 
		.s57 { fill: #e9e7de } 
		.s58 { fill: #cdcac6 } 
		.s59 { opacity: .4;fill: #c6c6c6 } 
		.s60 { fill: #333533 } 
		.s61 { fill: #eadada } 
		.s62 { fill: #ccb6b6 } 
		.s63 { fill: #efefef } 
		.s64 { opacity: .5;fill: #cdcbc4 } 
		.s65 { fill: #967364 } 
	</style>
	<g id="Layer 1">
		<path id="&lt;Path&gt;" class="s0" d="m1388.2 771.8h-1288.2c-36.1-72.2-41.5-162.2-41.4-267.2 0.2-287.2 209.5-465.3 650.3-465.3 359.1 0 674.8 289 697.9 473.7 13.8 110.6 7.8 194.8-18.6 258.8z"/>
		<path id="&lt;Path&gt;" class="s1" d="m1387.6 771.8c-71.3 172.6-292.2 198.1-679.3 198.1-387.9 0-545.6-71.4-608.9-198.1z"/>
		<g id="&lt;Group&gt;" style="opacity: .7">
			<path id="&lt;Path&gt;" class="s2" d="m579.5 827.3c25.2-2.1 72.3-8.2 88.3-12.2 34-6 52.4-1.8 86.4-3.8 104-2 208-26 312-24 42 0 140-6 164 40 20 38-18.6 56.6-48 70-103.6 47.3-194.1 27.1-284.1 9.1-100-20-192.4 12.8-289.3 34.2-63.3 14-226.6 2.7-232.6-49.3-8-56 153.9-50.6 203.3-64z"/>
		</g>
		<path id="&lt;Path&gt;" class="s3" d="m88 743.4c0 0 5.2 0 14.9-0.1 4.8 0 10.8 0 17.9-0.1 7 0 15.1 0 24.1-0.1 9.1 0 19.1-0.1 30-0.1 10.9-0.1 22.7-0.1 35.2-0.2 12.6 0 26-0.1 40.1-0.1q10.5-0.1 21.6-0.1 11.1-0.1 22.7-0.1 11.5 0 23.6-0.1 12 0 24.5-0.1 12.4 0 25.3 0 12.8-0.1 26.1-0.1 13.2-0.1 26.7-0.1 13.6 0 27.5-0.1 13.8 0 28-0.1 14.1 0 28.5 0 14.4-0.1 29-0.1 14.6 0 29.4-0.1 14.7 0 29.7 0 14.9-0.1 30-0.1 15.1 0 30.2-0.1 15.2 0 30.5 0 15.2 0 30.5-0.1 15.3 0 30.6 0 15.3 0 30.5-0.1 15.3 0 30.5 0 15.3 0 30.4-0.1 15.2 0 30.2 0 15.1 0 30 0 14.9-0.1 29.7-0.1 14.7 0 29.3 0 14.6 0 28.9 0 14.3-0.1 28.4-0.1 14.1 0 27.9 0 13.9 0 27.4 0 13.5-0.1 26.6-0.1 13.2 0 26 0 12.8 0 25.2 0 12.4-0.1 24.3-0.1 12 0 23.5 0 11.5 0 22.6 0 11 0 21.5 0c14-0.1 27.3-0.1 39.8-0.1 12.5 0 24.1 0 35 0 10.8-0.1 20.7-0.1 29.7-0.1 9 0 17 0 24 0 7 0 12.9 0 17.8 0 9.6-0.1 14.7-0.1 14.7-0.1l-10.4 30.4c0 0-5.1 0-14.5 0-4.7 0-10.5 0-17.3 0-6.8 0-14.7 0-23.5 0-8.8 0-18.5 0.1-29.1 0.1-10.6 0-22 0-34.3 0-12.2 0-25.2 0-39 0q-10.3 0-21.1 0-10.8 0-22.1 0.1-11.3 0-23.1 0-11.7 0-23.9 0-12.2 0-24.8 0-12.6 0-25.6 0-12.9 0-26.2 0-13.3 0-26.9 0-13.6 0.1-27.5 0.1-13.9 0-28.1 0-14.1 0-28.5 0-14.3 0-28.9 0-14.5 0-29.3 0-14.7 0-29.5 0-14.9 0-29.8 0.1-15 0-30 0-15.1 0-30.1 0-15.1 0-30.2 0-15.1 0-30.2 0-15.1 0-30.1 0-15 0-30 0-15 0.1-29.8 0.1-14.9 0-29.6 0-14.8 0-29.3 0-14.6 0-29 0-14.4 0-28.5 0-14.2 0-28.1 0.1-13.9 0-27.6 0-13.6 0-26.9 0-13.3 0-26.3 0-13 0-25.6 0-12.6 0-24.9 0-12.2 0.1-24 0.1-11.8 0-23.1 0-11.3 0-22.2 0-10.8 0-21.2 0c-13.8 0-26.8 0-39.1 0.1-12.3 0-23.8 0-34.4 0-10.6 0-20.4 0-29.2 0-8.8 0-16.7 0-23.6 0.1-6.8 0-12.6 0-17.4 0-9.4 0-14.5 0-14.5 0z"/>
		<path id="&lt;Path&gt;" class="s4" d="m1163.1 740.8l-15.6-87.1h18.2c0 0 4.6 38.4 8.8 73.7-3.2 5.1-7.1 9.4-11.4 13.4z"/>
		<path id="&lt;Path&gt;" class="s5" d="m1181.2 785.5c0.3 5.7-7 8.1-10 0.7l-8.1-45.4c4.3-4 8.2-8.3 11.4-13.4 3.4 28.8 6.6 55.6 6.7 58.1z"/>
		<path id="&lt;Path&gt;" class="s4" d="m1064.2 741.1c-4.3-2.6-8.2-5.6-12.2-8.2 4.5-37 9.8-80.4 9.8-80.4h18.6z"/>
		<path id="&lt;Path&gt;" class="s5" d="m1064.2 741.1l-8 43.9c-3.1 7.4-10.5 4.9-10.2-0.7 0.2-2.3 2.9-25.3 6-51.4 4 2.6 7.9 5.6 12.2 8.2z"/>
		<path id="&lt;Path&gt;" class="s6" d="m1216 698.7h-203.5v-181.3h203.5z"/>
		<path id="&lt;Path&gt;" class="s3" d="m1209.7 603.8h-189.8v-81.1h189.8z"/>
		<path id="&lt;Path&gt;" class="s7" d="m1118.7 568.7c0 3-2.4 5.5-5.4 5.5-3 0-5.5-2.5-5.5-5.5 0-3 2.5-5.4 5.5-5.4 3 0 5.4 2.4 5.4 5.4z"/>
		<path id="&lt;Path&gt;" class="s3" d="m1209.7 693.5h-189.8v-85.4h189.8z"/>
		<path id="&lt;Path&gt;" class="s8" d="m1036.1 711.4q10 0.7 19.9 1.2l-24.5 118.6c-3.5 7.4-12 5-11.6-0.7 0.3-4.5 11.7-87.1 16.2-119.1z"/>
		<path id="&lt;Path&gt;" class="s9" d="m1058.9 698.7l-2.9 13.9q-9.9-0.5-19.9-1.2c1-7.8 1.7-12.7 1.7-12.7z"/>
		<path id="&lt;Path&gt;" class="s8" d="m1191.2 712.2c4.5 32.7 15.7 113.9 16 118.3 0.4 5.7-8.1 8.1-11.6 0.7l-24.5-118.2q10-0.3 20.1-0.8z"/>
		<path id="&lt;Path&gt;" class="s9" d="m1191.2 712.2q-10.1 0.5-20.1 0.8l-2.9-14.3h21.1c0 0 0.7 5.2 1.9 13.5z"/>
		<path id="&lt;Path&gt;" class="s10" d="m1119.9 567.1c0 2.8-2.3 5.1-5.1 5.1-2.8 0-5.1-2.3-5.1-5.1 0-2.8 2.3-5 5.1-5 2.8 0 5.1 2.2 5.1 5z"/>
		<path id="&lt;Path&gt;" class="s7" d="m1118.7 652.5c0 3-2.4 5.5-5.4 5.5-3 0-5.5-2.5-5.5-5.5 0-3 2.5-5.5 5.5-5.5 3 0 5.4 2.5 5.4 5.5z"/>
		<path id="&lt;Path&gt;" class="s10" d="m1119.9 650.8c0 2.8-2.3 5-5.1 5-2.8 0-5.1-2.2-5.1-5 0-2.8 2.3-5.1 5.1-5.1 2.8 0 5.1 2.3 5.1 5.1z"/>
		<path id="&lt;Path&gt;" class="s11" d="m412.8 416.2l232-14.6c0 0 31.7-5.2 56.1 32.4 24.5 37.7 57.5 134.8 57.5 134.8l19.2 70.8-102.6 26.4-170.3-15.2z"/>
		<path id="&lt;Path&gt;" class="s12" d="m757.2 565.3l169 19.5-11.2 65.6-142-12.1z"/>
		<path id="&lt;Path&gt;" class="s13" d="m675.5 688.6l-4.3-30.5 243.8-13.6 0.7 96.9-230 49.5z"/>
		<path id="&lt;Path&gt;" class="s14" d="m803.8 670.3c-65.7 10.9-128.3 18.3-128.3 18.3l-4.3-38.2 92.5-16.1c3.8-1 87-0.6 127.5 3.3 25.7 2.5 22.2 10.4 22.2 10.4-29.8 7.3-70.2 15.8-109.6 22.3z"/>
		<path id="&lt;Path&gt;" class="s11" d="m912.3 698.2v43.9l-224.9 48.5-5.4-48.5z"/>
		<path id="&lt;Path&gt;" class="s14" d="m676.5 689.3c0 0 83.5-10.2 126.4-17.6 58.1-10 109.4-21.9 109.4-21.9v46.3l-230.3 44.8z"/>
		<path id="&lt;Path&gt;" class="s15" d="m913 593.8c0-15.3 24.8-7.4 26.2-2.2 1.3 5.3 8.2 141.2 8.2 141.2l-34.4 9.3c0 0 0-136.5 0-148.3z"/>
		<path id="&lt;Path&gt;" class="s8" d="m668.9 793.3l-1.1 100.7-17.1 4.4-4.2-99.8z"/>
		<path id="&lt;Path&gt;" class="s8" d="m879.9 749.2l1.4 19.5-13.6 2.6-199.9 43.8 1.1-21.8z"/>
		<path id="&lt;Path&gt;" class="s16" d="m794.4 639.8l-121 29-0.3-9.1 81-19.9z"/>
		<path id="&lt;Path&gt;" class="s8" d="m879.9 749.2l16.3-3.5 3.6 86.2-13.6 4.8z"/>
		<path id="&lt;Path&gt;" class="s5" d="m867.7 771.3l13.6-2.6 4.9 68-8.1-1.5z"/>
		<path id="&lt;Path&gt;" class="s17" d="m790.4 600.3l25.3 33.5-10.3 0.1z"/>
		<path id="&lt;Path&gt;" class="s5" d="m636.1 798.3l10.4 0.3 4.2 99.8-7.6-2.2z"/>
		<path id="&lt;Path&gt;" class="s17" d="m571.4 523.9l27.8 91.8-29.9-3.6-13.7-115.2z"/>
		<path id="&lt;Path&gt;" class="s4" d="m636.1 798.3l0.8 10.8-155.8-25.5 4.3-12.5z"/>
		<path id="&lt;Path&gt;" class="s4" d="m486.1 771.2l-35 95.4-3.5-5.2 32.4-108.4z"/>
		<path id="&lt;Path&gt;" class="s18" d="m462 863.4l-10.9 3.2 30-83 9.9 1.5z"/>
		<g id="&lt;Group&gt;">
			<path id="&lt;Path&gt;" class="s19" d="m805.8 631c0.1 1.2 0 2.2-0.4 2.9-5.8 10.7-33.3 4-51.3 10.4-41.7 14.7-96.8 16.4-105.3 16.9-12.5 0.6-36.3-9.3-36.3-9.3 0 0-14.4-19.9-26.1-52-7.8-21.5-12.1-40.2-15-57.4 18.9 31.9 40.5 65.7 77.6 80.5 50 18 104 8 156 8q0.4 0 0.8 0z"/>
			<path id="&lt;Path&gt;" class="s20" d="m571.4 542.5q-1.2-7.6-2.2-14.8c-1-7.5-18.8-28-12.1-35 0 0 23.1 4.7 35.7 1.6 54.6-13.7 87.7-10 114.3-6 23.5 3.5 33.9-14.7 37-10.5 6.6 8.9 9.7 50.1 18.3 75.8 4.8 14.2 41.7 62.9 43.4 77.4q-0.4 0-0.8 0c-52 0-106 10-156-8-37.1-14.8-58.7-48.6-77.6-80.5z"/>
		</g>
		<path id="&lt;Path&gt;" class="s21" d="m451.9 486.7c12.3 60.1 31.4 113.3 58.1 120.9 30.7 8.7 76 16.5 76 16.5 40.3 5.3 48.9 7.3 50.2 24.5 2.1 26.1 8.9 151.3 8.9 151.3l-159.5-25.1-36.3-141.4c0 0-38.4-217.5-36.4-217.4 16.5 0.6 25.1 2.6 39 70.7z"/>
		<path id="&lt;Path&gt;" class="s15" d="m638.5 698.2c-2.6-39.7 0.9-47.4-9.4-60.5-9.9-12.5-123.5-22.8-132.3-37.8 0 0 8.9 1.9 14.9 3.3 11.3 2.7 26.4 6.1 83 12.1 56.2 5.9 70.9 11.7 74.8 24.9 2.8 9.3 16.2 150.7 16.2 150.7l-42.3 9c0 0-1.5-47.6-4.9-101.7z"/>
		<g id="&lt;Group&gt;">
			<path id="&lt;Path&gt;" class="s22" d="m236.2 450.1c3.9 6.2-1.7 9.5-6 12.3-4.4 2.7-18.7-1.7-22-4.1-3.2-2.4-23.5 4.5-19.9 1.4 3.6-3 14.6-9.1 17.2-9.9 2.6-0.9 7.4-3.7 5.9-6.2-1.5-2.5-4 1-11.2 6.2-6.3 4.5-16.1 7.1-22.7 5.3 23.1-7.7 44.1-22.6 45.5-48.6 7.3 5.3 16.9 12.7 17.4 20.6 0.7 9.6-2.3 11.9-7.4 15-5.1 3.1-10 1.1-10 1.1-0.4 6.5 9.7 1.5 13.2 6.9z"/>
			<path id="&lt;Compound Path&gt;" fill-rule="evenodd" class="s23" d="m177.5 455.1q-1.5-0.5-2.8-1.3c-6.1-3.8-22.3-20.6-14.6-15.7 7.8 4.8 35.3 1.5 35.3 1.5 6.2-1.3 4.9-9.3-0.8-5.9-10.4 6.3-34.5 2.1-39.8-1.7-5.3-3.9-9.5-16.2-6.6-13.9 2.8 2.2 10.3 3.8 15.2 5.9 4.8 2.2 15.4 3.2 16.6 0.6 1.2-2.6-1.2-5-7.9-4.5-6.7 0.6-24.5-7.6-24.5-7.6 0.4-0.4-2.2-13.6 0.2-15.1 14.4-8.3 34.9-3.5 34.9-3.5 0 0 2.1 1.4 8.4 5.6 6.3 4.2 12.1 11.4 11.8 17.1-0.4 5.7 5 14.1 6.4 11.7 1.4-2.3 1.8-7.5-1.1-14-3-6.5-18.1-17.9-16.1-17.7 2 0.2 19.3 1.4 26.4 6.7 1.3 0.9 2.8 2 4.5 3.2-1.4 26-22.4 40.9-45.5 48.6zm15.4-41.8c-3.8-4-7-5.6-7-5.6 0 0-1.6-0.6-1.1 1.4 0.7 3.1 4.6 8.6 8 9.4 0 0 3.7-1.4 0.1-5.2z"/>
			<path id="&lt;Path&gt;" class="s24" d="m210.7 435.3q-0.4 0.4-0.7 0.7c-1.4-0.9-2.6-1.7-3.7-2.4-6.9-4.4-23.9-12.7-23.9-12.7 0 0 13.2 5.1 21.5 10.1 1.2 0.7 3.8 2.4 6.8 4.3z"/>
			<path id="&lt;Path&gt;" class="s25" d="m223.1 444.7c0 0-7.5-5-13.1-8.7q0.3-0.3 0.7-0.7c5.6 3.5 12.3 7.9 12.3 7.9z"/>
		</g>
		<g id="&lt;Group&gt;">
			<path id="&lt;Path&gt;" class="s26" d="m275.7 664.5q-2-0.1-4-0.1l-0.8-39.6 4-0.1z"/>
			<path id="&lt;Path&gt;" class="s26" d="m284.9 664.6l1.7-39.9 4 0.1-1.7 39.8q-2 0-4 0z"/>
			<path id="&lt;Path&gt;" class="s27" d="m288.9 664.6l-9.3 211.8h-4l-3.9-212q2 0 4 0.1l2.7 147.6 6.5-147.5q2 0 4 0z"/>
		</g>
		<g id="&lt;Group&gt;">
			<path id="&lt;Path&gt;" class="s26" d="m311.9 663.6q-2 0.1-4 0.3l-1.1-39.1 4-0.1z"/>
			<path id="&lt;Path&gt;" class="s26" d="m322.7 662.4q-2 0.3-4 0.5l0.8-49.9h4z"/>
			<path id="&lt;Path&gt;" class="s27" d="m322.7 662.4l-3.9 242.9-4 0.1-6.9-241.5q2-0.2 4-0.3l4.4 152.4 2.4-153.1q2-0.2 4-0.5z"/>
		</g>
		<g id="&lt;Group&gt;">
			<path id="&lt;Path&gt;" class="s26" d="m218.9 660q-2-0.3-4-0.5l1.2-41.1 4 0.1z"/>
			<path id="&lt;Path&gt;" class="s26" d="m228.7 624.2l-2.2 36.6q-2-0.2-4-0.4l2.2-36.4z"/>
			<path id="&lt;Path&gt;" class="s27" d="m216.9 755c0.6-10.4 1.4-24.4 2.2-38.4 0.9-14 1.7-28.1 2.3-38.6 0.7-10.6 1.1-17.6 1.1-17.6q2 0.2 4 0.4c0 0-0.9 14.9-2.3 37.3-0.6 11.1-1.4 24.2-2.2 38.1-0.4 6.9-0.9 14.1-1.3 21.4-0.4 7.2-0.9 14.6-1.3 21.9-0.4 7.2-0.8 14.5-1.2 21.6-0.4 7-0.8 13.9-1.2 20.4-0.7 13-1.4 24.9-1.9 34.9-1.1 19.2-1.7 31.5-1.7 31.5l-4-2.5c0 0 0.2-12.5 0.6-31.8 0.2-9.9 0.5-21.6 0.7-34.4 0.2-6.5 0.3-13.3 0.5-20.2 0.2-7 0.4-14.1 0.5-21.2 0.2-7.2 0.4-14.5 0.6-21.7 0.2-7.2 0.4-14.3 0.6-21.2 0.3-13.8 0.7-26.9 1-38 0.6-22.4 1-37.4 1-37.4q2 0.2 4 0.5c0 0-0.2 7-0.5 17.6-0.3 10.6-0.7 24.7-1 38.8-0.4 14-0.8 28-1.1 38.5-0.3 10.3-0.4 17.2-0.4 17.2 0 0 0.4-6.8 1-17.1z"/>
		</g>
		<g id="&lt;Group&gt;">
			<path id="&lt;Path&gt;" class="s28" d="m321.8 608.8l-3.4-2c0.2-0.5 0.6-1.1 1.1-1.8 1.3-1.9 3.8-5.6 3.3-7.6-0.1-0.3-0.4-0.9-1.3-1.4-0.4-0.2-0.7-0.2-1 0-2.6 1-5.7 7.9-7.1 12.4l-3.8-1.2c0.6-2.1 4.1-12.8 9.3-14.9 1.5-0.6 3.1-0.6 4.5 0.2 2.1 1.2 2.9 2.8 3.2 3.9 1 3.8-1.9 8-3.8 10.9-0.4 0.6-0.7 1.1-1 1.5z"/>
		</g>
		<g id="&lt;Group&gt;">
			<path id="&lt;Path&gt;" class="s28" d="m222.5 609.5c-2.6-6.1-6-11.8-7.9-13.3 0.4 1.9 2 5.9 5.2 10.2l-3.2 2.4c0-0.1-8.1-11-5.5-15.4 0.4-0.6 1.4-1.8 3.5-1.5 4.6 0.7 9.6 11.5 11.6 16.1z"/>
		</g>
		<path id="&lt;Path&gt;" class="s3" d="m326.2 615.7c0 5-3.5 9-13.9 9.1 0 0-23.4 2.5-42.5 2.5-20 0-42.5-2.5-42.5-2.5-9.8-0.1-13.9-4.1-13.9-9.1 0-4.9 0-9 13.9-9h85c13.9 0 13.9 4.1 13.9 9z"/>
		<path id="&lt;Path&gt;" class="s29" d="m325.2 609.8c0 3.3-25.1 5.9-55.9 5.9-30.9 0-55.9-2.6-55.9-5.9 0-3.2 25-5.9 55.9-5.9 30.8 0 55.9 2.7 55.9 5.9z"/>
		<path id="&lt;Path&gt;" class="s30" d="m229.3 573l-9.7-68.4h50.2 50.2l-10.5 74.1c-26.6 3.7-54.1 1.9-80.2-5.7z"/>
		<path id="&lt;Path&gt;" class="s31" d="m309.5 578.7l-4.4 31.1c0 0-20.4 3-35.3 2.2-14.9 0.8-35.3-2.2-35.3-2.2l-5.2-36.8c26.1 7.6 53.6 9.4 80.2 5.7z"/>
		<path id="&lt;Path&gt;" class="s32" d="m260.8 536.8l-104.6 51.8-13.4-4.3 123.9-58.1z"/>
		<path id="&lt;Path&gt;" class="s33" d="m246.8 539.2q1.9 3.9 3.1 7.9c-5.2 4.5-7.2 6.7-7.2 6.7 0 0 3.1-6.5 4.1-14.6z"/>
		<path id="&lt;Path&gt;" class="s33" d="m217.1 467c-8.8-8.6-22.5-10.9-22.5-10.9 0 0 6.2-0.9 21.3-5.3 1.1 5.2 1.3 10.7 1.2 16.2z"/>
		<path id="&lt;Path&gt;" class="s34" d="m262.1 537.2c-5.2 4.1-9.2 7.4-12.2 9.9q-1.2-4-3.1-7.9c0.5-4.1 0.5-8.5-0.6-12.8-1.9-7.3-3.2-9.8-8.4-10.5 0 0-0.8 3.9 2.3 11.5-5-7.4-11.1-14.4-17.1-20.4q-1.2-1.5-2.2-3.1l18.2-9.3c0 0 17.5-6 25.2 5.8 7.8 11.8 12.4 25.5-2.1 36.8z"/>
		<path id="&lt;Path&gt;" class="s34" d="m216.8 476.5c3.4 4.3 5.9 5.4 5.9 5.4 2.4-4.6 1.2-7.1-3.7-12.9q-0.9-1-1.9-2c0.1-5.5-0.1-11-1.2-16.2q1.7-0.5 3.4-1c17.7-5.3 26.2 6.4 31.3 19.5 5.2 13.1-9.8 24-9.8 24l-20.1 10.4c-4.2-7.3-4.2-17-3.9-27.2z"/>
		<path id="&lt;Path&gt;" class="s33" d="m223 507c6 6 12.1 13 17.1 20.4q0 0 0 0.1c3.1 7.6 2.4 23.7-1.2 27-3.5 3.3-17.5 9.8-20.7 10.2-3.1 0.5 9.5-23.5 7.8-31.5-1.8-8.1-2.6-15.9-7.5-14.1-5 1.9-3.6 12.4-3.4 15.4 0.2 3-4.8 23-10.3 25.6-5.5 2.7-20.8-0.1-20.8-0.1 0 0 21.4-25.6 16.8-30.1-4.6-4.6-10.7 3.2-12.8 7.3-2 4.1-4.7 11.7-19.1 3.3-14.5-8.3-8-5.6-8-5.6l1.2-0.7c0-1.3 0.2-4.2 0.7-10.2 1.6-16.6 9.2-14.5 13.8-13.7 4.5 0.7 14.4 0.1 13.4-6.2-1-6.4-34.3-3.7-34.3-3.7 0 0 6.5-14.2 11.9-17.1 5.3-2.9 24.5 4.5 26.8 6.4 2.3 1.9 10.1 9.1 14.5 6.1 4.4-2.9-1.6-8.1-7.1-14.2-5.5-6-32.5-9.6-30.3-11.9 2.2-2.3 15.6-10 20.4-11 4.8-1 18.3 7.7 22.7 14.7q1.2 1.8 2.2 3.1c-0.3 10.2-0.3 19.9 3.9 27.2l-57.9 30.1q0 0 0 0.1l58-30q1 1.6 2.2 3.1z"/>
		<path id="&lt;Path&gt;" class="s35" d="m334.2 529.1c-3.2 0.4 9.5-23.6 7.8-31.6-1.8-8-2.6-15.9-7.5-14-5 1.9-3.7 12.4-3.4 15.4 0.2 3-4.8 22.9-10.3 25.6-5.5 2.7-20.8-0.2-20.8-0.2 0 0 21.4-25.6 16.8-30.1-4.6-4.5-10.8 3.2-12.8 7.4-2 4.1-4.7 11.6-19.2 3.3-14.4-8.4-8-5.7-8-5.7l1.3-0.6c0-1.4 0.1-4.3 0.7-10.3 1.5-16.6 9.2-14.4 13.8-13.7 4.5 0.7 14.4 0.2 13.4-6.2-1.1-6.4-34.3-3.7-34.3-3.7 0 0 6.5-14.1 11.8-17 5.4-3 24.6 4.5 26.9 6.4 2.3 1.9 10.1 9 14.5 6.1 4.4-3-1.6-8.2-7.1-14.2-5.5-6.1-32.5-9.6-30.3-11.9 2.2-2.4 15.6-10.1 20.4-11 4.7-1 18.2 7.7 22.7 14.6 4.4 7 8.1 8.6 8.1 8.6 2.4-4.6 1.1-7.1-3.7-12.9-8.7-10.3-24.4-13-24.4-13 0 0 7-1 24.7-6.3 17.7-5.2 26.2 6.4 31.3 19.6 5.2 13.1-9.8 23.9-9.8 23.9l-78 40.5q0 0 0 0.1l76.2-39.3c0 0 17.5-5.9 25.2 5.9 7.8 11.8 12.4 25.4-2.1 36.8-14.5 11.4-19.5 16.5-19.5 16.5 0 0 7-14.4 3.6-27.3-2-7.4-3.3-9.9-8.4-10.5 0 0-0.8 3.9 2.3 11.5 3.1 7.7 2.4 23.7-1.2 27-3.5 3.4-17.5 9.8-20.7 10.3z"/>
		<path id="&lt;Path&gt;" class="s36" d="m297.5 497c-3.1 0.5 9.5-23.5 7.8-31.5-1.8-8.1-2.6-16-7.5-14.1-5 1.9-3.6 12.4-3.4 15.4 0.2 3-4.8 22.9-10.3 25.6-5.5 2.7-20.7-0.1-20.7-0.1 0 0 21.3-25.6 16.7-30.2-4.6-4.5-10.7 3.3-12.8 7.4-2 4.1-4.7 11.6-19.1 3.3-14.5-8.3-8-5.6-8-5.6l1.2-0.7c0-1.3 0.2-4.3 0.7-10.2 1.6-16.6 9.2-14.5 13.8-13.8 4.5 0.8 14.4 0.2 13.4-6.1-1-6.4-34.3-3.8-34.3-3.8 0 0 6.5-14.1 11.9-17 5.3-2.9 24.5 4.5 26.8 6.4 2.3 1.9 10.1 9.1 14.5 6.1 4.4-2.9-1.6-8.1-7.1-14.2-5.5-6.1-32.4-9.6-30.2-11.9 2.2-2.3 15.5-10 20.3-11 4.8-1 18.3 7.7 22.7 14.7 4.4 6.9 8.1 8.5 8.1 8.5 2.5-4.6 1.2-7.1-3.7-12.9-8.6-10.3-24.4-12.9-24.4-12.9 0 0 7.1-1 24.7-6.3 17.7-5.3 26.2 6.4 31.3 19.5 5.2 13.1-9.8 24-9.8 24l-78 40.5q0 0 0 0.1l76.2-39.3c0 0 17.5-6 25.2 5.8 7.8 11.8 12.4 25.5-2.1 36.8-14.5 11.4-19.4 16.5-19.4 16.5 0 0 6.9-14.3 3.5-27.3-1.9-7.3-3.2-9.8-8.4-10.5 0 0-0.8 4 2.3 11.6 3.1 7.6 2.4 23.6-1.2 27-3.5 3.3-17.5 9.8-20.7 10.2z"/>
		<path id="&lt;Path&gt;" class="s32" d="m177.8 620.1c1.6-5.2 3.1-10.6 4.5-15.9 6.4 4.2 23.4 16.5 28.1 19.8 5.6 3.9 8.3 10.3 8.3 17.5 0 7.1-3.4 24.3-5.3 22.8-1.9-1.5-22.4-26-24.5-29.2-1.2-2-6.1-9.4-11.1-15z"/>
		<path id="&lt;Path&gt;" class="s32" d="m103.7 592.9c-3.7 6.8-6.3 13.8-7.6 20.9-15 8.9-29.7 22.6-31.4 24.7-2.7 3.2-0.2 13-2.1 10.9-1.9-2.1-5.5-9.8-3.8-13.7 1.7-4 1.2-16 3-23.2 1.9-7.2 13.5-13.6 22.8-15.8 3.7-1 11.4-2.4 19.1-3.8z"/>
		<path id="&lt;Path&gt;" class="s32" d="m164.9 648.3c4.3-6 7.4-12.7 10-19.7 7.7 10.9 19.3 32.3 23.4 41.3 5.1 11.1 1.9 14.5 1.9 14.5 0 0-15 21.9-16.9 20.2-1.9-1.7-14-42.8-16-49-0.5-1.6-1.4-4.3-2.4-7.3z"/>
		<path id="&lt;Path&gt;" class="s32" d="m101.7 649.7q3.4 6.5 8.8 12.7c-8.8 2.1-11.1 4.5-18.9 13.4-11.4 12.7-16.4 28.6-16.4 28.6 0 0-12.4-3.8-10.5-12.1 1.8-8.3 8.1-16.8 12.8-21.8 4.4-4.7 17.2-15.5 24.2-20.8z"/>
		<path id="&lt;Path&gt;" class="s32" d="m199.7 562.3c12.5 7.8 12.7 22.9 12.7 22.9 0 0-5-5.5-10.7-8.9-2.5-1.4-6.5-1.6-9.9-1 1.5-3.5 3.2-6.9 5.2-10.3 0.4-0.8 1.4-1.7 2.7-2.7z"/>
		<path id="&lt;Path&gt;" class="s32" d="m223 619.7c-0.6-0.8-29.2-19.4-38.6-21.9q-0.1 0-0.3-0.1c1.5-5.4 3.2-10.8 5.1-16 10.3 6.1 22.2 3.8 25.1 5.6 3.2 1.9 7.2 9.9 8.7 13.3 1.5 3.4 0.6 19.8 0 19.1z"/>
		<path id="&lt;Path&gt;" class="s32" d="m147 665c2.7-1.6 5.1-3.4 7.3-5.2 3.1 7.7 6 15.1 7.1 18.2 2.7 7.4 7.9 29 5.1 35-2.9 6.1-20.3 16.8-19.7 15.1 0.5-1.7-2.5-42.4-3.2-48.2-0.4-2.6-2.1-7.5-4.1-12q3.8-1.1 7.5-2.9z"/>
		<path id="&lt;Path&gt;" class="s32" d="m131.1 669.2c0.5 2.7 1.3 5.8 2.1 9.4 2.8 12 4.5 34.2 1.5 42.7-3 8.5-16.6 10-14.9 7.2 1.7-2.9 4.2-17.7 4.5-32.8 0.4-15-7.9-16.2-7.9-16.2 0 0-2.6-1.7-3 18.3-0.3 19.9-8.8 28-8.8 28 0 0 0 0-4.3-2.8-4.4-2.8-8.1 0.8-8.1 0.8 0 0-0.4-1.7-2.5-6.6-2.1-4.9-10.5-7.7-10.5-7.7 0 0-2.9-3.6 2.4-11 5.3-7.3 22.3-24.5 26.4-28 2.6-2.3 2.8-6.5 2.8-7.7q0.1 0.1 0.2 0.2c5.7 4.6 12.8 6.5 20.1 6.2z"/>
		<path id="&lt;Compound Path&gt;" fill-rule="evenodd" class="s34" d="m189.2 581.7c-1.9 5.2-3.6 10.6-5.1 16-18.3-4.6-15 5-4.2 5 0.2 0 1.1 0.6 2.4 1.5-1.4 5.3-2.9 10.7-4.5 15.9-3.2-3.6-6.4-6.6-8.6-6.9-5.9-0.7-5.1 3.6 1.3 9.8 1.2 1.1 2.7 3.1 4.4 5.6-2.6 7-5.7 13.7-10 19.7-3-8.2-7.9-19.2-14.4-20.6-8.8-1.8-8.3 7-6.2 9.5 1.2 1.4 5.8 12.2 10 22.6-2.2 1.8-4.6 3.6-7.3 5.2q-3.7 1.8-7.5 2.9c-2.6-5.7-5.7-10.8-7.6-10-2.4 0.9-2.2 4.9-0.8 11.3-7.3 0.3-14.4-1.6-20.1-6.2q-0.1-0.1-0.2-0.2 0-0.4 0-0.4-0.1 0-0.3 0-5.4-6.2-8.8-12.7c1.3-0.9 2.4-1.7 3.2-2.2 5.3-3.4 14.8-16.5 8.6-17.2-6.2-0.8-12.4 3.3-16.4 7.6q0 0.1 0 0.1-2.1-7.5-1.9-15c8.6-4.3 18.9-7.8 19.5-8.1 5.4-2.1 9.2-8.7 3.1-8.8-6.3-0.1-14 3.2-21.7 7.7 1.3-7.1 3.9-14.1 7.6-20.9 11.3-2 22.7-3.9 22.7-3.9 6-0.8 4.4-6-0.2-5.3-2.6 0.4-9.4 0.8-17.6 1.3 3.8-5.5 8.4-10.9 13.5-16 3.1 0.2 5.1 0.3 5.1 0.3 3.6 1.1 8.9 1.2-1-4.1q2.3-2.2 4.8-4.2c3.1-1.6 5-6.7 5.7-12.7 8.6 3.6 14.4 10.7 15.5 15.6 0.7 3.3 0.9 15.6 0.9 15.6 0 0 3.3 5 4.8 1.2 1.6-4.2 13.5-27 33.9-21.7 3 0.8 5.6 2 7.9 3.3-1.3 1-2.3 1.9-2.7 2.7-2 3.4-3.7 6.8-5.2 10.3-4.3 0.8-7.5 2.9-4.8 4.9q1.1 0.8 2.2 1.5zm-54.3 17.8c0 0-7.9-2.3-11.9 0-3.9 2.3-1.5 5.3 2.1 5.7 3.6 0.3 13.2 0.7 9.8-5.7zm27.3 7.9c0-6.2-8.5-8.9-8.5-8.9-6 0.7-3.2 7.2 0 8.2 3.2 0.9 8.5 3.1 8.5 0.7z"/>
		<path id="&lt;Path&gt;" class="s32" d="m131 561q-2.5 2-4.8 4.2-1.4-0.8-3.2-1.7c-14.1-6.9-26.8 8.5-22.8 1.4 1.1-1.9 4-7.1 5.1-8.5 5.7-7.2 9.5-11 22.4-10.2 3.2 0.2 6.2 1 9 2.1-0.7 6-2.6 11.1-5.7 12.7z"/>
		<path id="&lt;Path&gt;" class="s32" d="m97.1 638c-3.7 3.9-8.5 10.1-14.4 17.8-5.8 7.7-20.3 27.7-20.3 27.7 0 0-0.6-2.3-1.3-6.4-0.8-4.2-2.8-10.8-0.6-13.6 2.3-2.8 6.2-4.7 9.4-11.3 3.2-6.6 8.9-16.7 16-23.3 2.2-2 5.6-4 9.3-5.9q-0.2 7.5 1.9 15z"/>
		<path id="&lt;Path&gt;" class="s32" d="m108.6 585c-20 1.2-48.4 2.3-44.8 1.2 5.1-1.5 2.4-7 9.7-14.9 7.4-7.9 11.3-7.6 16.6-5.5 3.9 1.5 22.8 2.7 32 3.2-5.1 5.1-9.7 10.5-13.5 16z"/>
		<path id="&lt;Path&gt;" class="s37" d="m153.1 579.5l3.3 2.6c0 0-8.1 10.5-16.6 31.7-3.2 7.8-18.1 45.6-20.4 52.9-1.1 3.6 9.2-32.1 15.7-46.6 6.5-14.5 18-40.6 18-40.6z"/>
		<g id="&lt;Group&gt;">
			<path id="&lt;Path&gt;" class="s38" d="m198.7 281c0 0 3-1.2 7.2-1.6 1.6 1.1 3.4 2.5 5.1 4-6.1 1.3-12.3-2.4-12.3-2.4z"/>
			<path id="&lt;Path&gt;" class="s39" d="m295.8 354.1c-5.4-17.1-19.5-19.8-23.3-22.7-3.8-3-8.3-2-5.6 2.9 2.8 4.9 17.5 11.5 24.9 20.2 5.7 6.7 2 13.1 2 13.1-1.5 4.3-16.2 20.4-16.3 17-0.7-21.6-10.5-30.8-12.7-34.6-2.2-3.9-10.9-10.8-11.2-5.7-0.4 5 3.6 12.9 8.6 20 6.7 9.4 6.6 25.8 4.8 29.7-1.8 3.9-9.7 7.9-12.4 7-2.7-0.9-16.5 4.3-16.5 4.3 12.3-10.4 8.9-30.9 9.3-36.9 0.1-1.4-0.2-3.2-0.7-5.1q0.2-0.1 0.3-0.3-0.1 0.2-0.3 0.3c-1.5-6.2-5.3-14.2-7-17.4-1.1-2.3-2.9-2.6-4.1-1.8q-0.4-1.5-0.6-3.1c-6-20 8-38 0-54-1.4-2.9 2.3-8.9 0.7-12.8q0.4 0.1 0.8 0.1c5.3 0.5 11.1-1.2 17.7 10.1 6.7 11.2-2.4 26.5-6.1 28.4-3.8 1.9-4.3 4.8-4.3 4.8 0.5 1.1 1.4 1.6 2.4 1.7 4 0.1 11.2-6.6 17.1-9.5 7.3-3.6 16.7-6.7 28.1 8.5 12 16 5.8 40.1 4.4 35.8z"/>
			<path id="&lt;Path&gt;" class="s38" d="m203.9 305.7c-3 3-5.9 6.1-8.6 9.4-3.8-1.2-8-2.5-12.9-4.2-16.7-5.8-30.4-4.5-30-5.6 0.5-1 5.4-10 14.2-12.8 8.8-2.9 21.2 4.8 25.7 6.6 1.9 0.7 6.7 3.8 11.6 6.6z"/>
			<path id="&lt;Path&gt;" class="s38" d="m190.9 320.5c-2.3 3.2-4.4 6.6-6.2 10.3-4.3-0.9-9.2-1.6-13.6-2-7.9-0.6-28.9 8.1-28.9 8.1 0 0 2.2-17.4 5.4-20.3 3.2-2.8 18.6-2.2 21.7-2.3 1.9-0.1 12.8 3.3 21.6 6.2z"/>
			<path id="&lt;Path&gt;" class="s38" d="m222.8 376.5c5-1.3 11.1-3.4 16.3-6.6 1.6 9.7 1.7 22.2 0 27-1.8 5.3-4.9 11.1-7.4 12-2.4 0.9-26.4-0.3-26.4-0.3 0 0 5.9-8.5 10.8-16 3-4.7 5.3-10.3 6.7-16.1z"/>
			<path id="&lt;Path&gt;" class="s38" d="m217.6 289.9c-2.7 3.7-5.7 7.3-9 10.7-6-4-13.4-6.9-13.4-6.9-4.8-3.2-23.5-2.8-22.5-4.7 6.3-11.6 18.9-13.9 27.7-12.2 1.7 0.4 3.5 1.3 5.5 2.6-4.2 0.4-7.2 1.6-7.2 1.6 0 0 6.2 3.7 12.3 2.4 2.3 2.1 4.6 4.4 6.6 6.5z"/>
			<path id="&lt;Path&gt;" class="s38" d="m193.9 372.5c-0.6 2-1.3 4.5-2.1 7.5-4 15.2-18.3 23-19.9 23.1-1.6 0.1-20.6-3.6-13.5-4.9 7-1.3 23.8-17.6 24-24.3 0.2-6.8-4.9-2.1-4.9-2.1-1.5 2.2-21.2 25.1-22.8 19.9-2.4-7.8-18.1-5.6-12.3-9.9 5.8-4.4-2.1-17.1-2.1-17.1 0 0 26.9-7.2 31.6-8 4.7-0.7 7-4.7-0.5-5.6-7.5-0.9-31.4 7.6-31.4 7.6 0 0-4-15.7 0.1-18.9 5.6-4.4 20.6-4.3 29.9-4.8 3.8-0.2 8.3 0.8 12.4 1.9-3.7 13.8 1.5 27.8 11.5 35.6z"/>
			<path id="&lt;Path&gt;" class="s38" d="m213.1 378.4c-1 9.1-4.4 17.5-8 21.7-4 4.6-12.5 10.3-12.5 10.3l-17.1-6.1c0 0 14.6-13.1 20.5-22.6q2-3.3 3.1-6c4.2 2 9 3 14 2.7z"/>
			<path id="&lt;Path&gt;" class="s40" d="m238.5 367q0.3 1.4 0.6 2.9c-5.2 3.2-11.3 5.3-16.3 6.6 0.8-3.5 1.3-7 1.3-10.4-0.1-7.8-2.5-15.3-6.8-16.3-4.3-1-5.3 5.4-4 18.1 0.4 3.5 0.3 7-0.2 10.5-5 0.3-9.8-0.7-14-2.7 2.5-5.7 2.4-9.8 0.7-11.4-1.9-1.8-3.3-0.3-5.9 8.2-10-7.8-15.2-21.8-11.5-35.6 6.1 1.8 11.7 3.9 14 3.5 4-0.6 4.4-3.1-0.1-5.8-2.3-1.4-6.6-2.7-11.6-3.8 1.8-3.7 3.9-7.1 6.2-10.3 5.3 1.7 9.8 3.3 11.2 3.9 3.8 1.6 11.9 3.4 9.4-1.4-1.7-3.3-7.2-5.1-16.2-7.9 2.7-3.3 5.6-6.4 8.6-9.4 6.7 3.9 13.5 7.2 12.3 2.9-0.8-2.8-3.9-5.6-7.6-8 3.3-3.4 6.3-7 9-10.7 3.5 3.6 6.3 6.6 7.6 7.2 3.2 1.4 3.8-1.9 3.7-5.3 0-2.1-3.1-6.5-6.9-8.8 1.8-3.5 3.3-7.3 4.1-11.4 3 0.9 6.4 2.2 9.6 2.6 1.6 3.9-2.1 9.9-0.7 12.8 8 16-6 34 0 54q0.2 1.6 0.6 3.1c-1 0.7-1.5 2.2-1 4.2 1.2 3.8 1.7 8.7 3.9 18.7z"/>
			<path id="&lt;Path&gt;" class="s38" d="m211 283.4c-1.7-1.5-3.5-2.9-5.1-4q0.2 0 0.4 0c4.4-0.4 11.5-8.7 15.3-8.7 1.3 0 2.8 0.4 4.5 0.9-0.8 4.1-2.3 7.9-4.1 11.4-2.6-1.6-5.5-2.2-8.1-0.7-1 0.5-1.9 0.9-2.9 1.1z"/>
			<path id="&lt;Path&gt;" class="s23" d="m183.7 358.9q0.4 0.8 0.7 1.5c-9.8 5.4-44.6 24.3-43.3 23.2 5.8-4.6 33.2-19.3 42.6-24.7z"/>
			<path id="&lt;Path&gt;" class="s41" d="m186.3 359.4c-0.4 0.3-1.1 0.6-1.9 1q-0.3-0.7-0.7-1.5c1.1-0.6 2-1.1 2.5-1.5 4-2.5 20-12.1 33.5-21.5 5.2-3.6 10-7.2 14-10.2q-0.2 1.5-0.2 3c-2.5 1.8-5.3 3.7-8.2 5.7-15.8 10.7-35.7 23.2-39 25z"/>
			<path id="&lt;Path&gt;" class="s42" d="m246.2 319.3c0 0-5.2 4-12.7 9.4q0-1.5 0.2-3c6.1-4.7 10.1-8.1 10.1-8.1z"/>
		</g>
		<g id="&lt;Group&gt;">
			<path id="&lt;Path&gt;" class="s32" d="m427 579.9c-12.3 15.8-13.3 11.8-13.3 11.8 0 0-18-17.3-24.8-47.2-1.8-7.9-9.2 0.4-8.4 3.9 0 0 1.5 15.7 6.9 27.4 5.4 11.6 5.5 21.7 6.6 24.7 1 3-16.8-0.8-17.6-0.5-0.7 0.3-8.7-3.9-10-21.9-1-14.5-1.2-24.6-0.4-32.1 14.5-3.5 26.6-11.4 33-25q0.4-0.9 0.7-1.8c2.1-0.5 4.2-1.2 5.8-1.9 5.5-2.3 33.2-2.9 37.1-0.4 3.8 2.5 2.7 14.9 3.1 20.2 0.4 5.2-27.5-17.7-34.9-6.1-2.5 3.9 24.4 6.7 26.9 5.9l8.2 5.6c0 0-7.9 16.1 0.5 22.3 5.6 4.1-4.6-4-19.4 15.1z"/>
			<path id="&lt;Path&gt;" class="s32" d="m288.3 529.4c5.9 4.1 12.5 7.6 19.5 10.4-4 6-8.1 12.7-8.7 26.5-0.2 3.4-12.3-22-12.8-22.5 0 0-2.1-8.9 2-14.4z"/>
			<path id="&lt;Path&gt;" class="s32" d="m317.2 543.2c5 1.5 10.2 2.7 15.4 3.5-1.1 5.4-0.9 9.8-1 11.4-0.4 2.6 0 15.4-0.6 21.5-0.5 6.1 2.7 13.4 2.7 13.4 0 0-21.6-11-27.5-20.9-3.6-6 5.1-18.9 11-28.9z"/>
			<path id="&lt;Path&gt;" class="s32" d="m391.7 447.1c19.3 4.1 14.1 9 14.1 9 0 0-6.6 1.8-14 5.4-0.7-5-0.9-9.8-0.1-14.4z"/>
			<path id="&lt;Path&gt;" class="s32" d="m356.4 547.6c-0.4 11.3 1.7 25.9 2.6 29.1 1.3 4.8 7.2 23.2 7.2 23.2 0 0-21.5-7.5-23.9-8-2.4-0.5-6.8-15.3-6.8-20.9 0-3.4 2.5-14.9 4.6-23.3 5.5 0.4 11 0.4 16.3-0.1z"/>
			<path id="&lt;Compound Path&gt;" fill-rule="evenodd" class="s32" d="m394.1 472.7q2.1-1.2 4.2-2.2c8-3.5 14.6-2.5 19.5-0.2 4.8 2.2 9.2 6 11.8 17.6 1.7 7.5 6.9-1.5 11.9 7.9 5 9.3 5 13.6 5 13.6 0 0-35.4-0.9-45.1 1.2 0.5-11.5-4.1-24.9-7.3-37.9zm8 21.6c3.7-1.3 7.4-4.6 7.4-4.6 0 0-3.6-3.4-9.7 2 0 0-1.4 4 2.3 2.6z"/>
			<path id="&lt;Compound Path&gt;" fill-rule="evenodd" class="s34" d="m366 546q0.3-2.8 0.8-5.2c1.7-8.1-2-12.6-7.6-6-1.9 2.2-2.7 7.1-2.8 12.8-5.3 0.5-10.8 0.5-16.3 0.1 1.3-5.3 2.4-9.4 2.5-9.7 0.4-0.7 1-12.6-5.3-3.1-2.6 3.9-4 8.1-4.7 11.8-5.2-0.8-10.4-2-15.4-3.5q1-1.7 1.8-3.3c5.7-10.3 11.8-16 7.4-16.4-4.3-0.4-11.6 5.7-16.2 12.8q-1.2 1.7-2.4 3.5c-7-2.8-13.6-6.3-19.5-10.4q0.2-0.3 0.4-0.6c4.7-5.5 16.5-10.4 20.2-11.7 2.6-1 9.8-6.4 7.8-7.9-2-1.5-9.3 0.6-16.4 5.6-7.1 5-11.7 7.5-15 9.8-3.3 2.3-1.5-6.1 1.2-8.7 2.7-2.6 13.1-13 22.6-17.1 9.4-4.1 15.4-4.1 22.8 1.5 3.4 2.5 6.3-2.1 6.3-2.1 0 0 0.5-6-4.3-6.3-4.9-0.3-13.3-8.6-12.9-21.8 0.5-13.2 21.5-19.5 25.6-15.2 4.1 4.2-2.1 16.4 0.1 19.6 2.2 3.3 6.8 0.3 8.6-4.3 1.8-4.6 10.2-27.8 33.2-23.7q1.7 0.3 3.2 0.6c-0.8 4.6-0.6 9.4 0.1 14.4-5.6 2.7-11.6 6.5-15.5 11.5-12.4 16-14.3 19.4-13.2 22.1 0 0 0.8 1.5 5.6-3.1 4.2-4 15.6-13.8 25.4-19.3 3.2 13 7.8 26.4 7.3 37.9q-0.4 0.1-0.8 0.2c-8.5 2.3-17.6 4.2-14.4 7.8 2.4 2.6 8.3 2 13.5 0.6q-0.3 0.9-0.7 1.8c-6.4 13.6-18.5 21.5-33 25zm-16.3-30l-0.8-1c0 0-5.1 3.6-4.3 7.5 0.8 3.8 8.2-0.8 5.1-6.5zm41.3-17.1c5.1-2.7 4.5-4.6 0.7-5.5 0 0-11.2 1.7-11.1 5.6 0.1 3.8 4.3 3.1 10.4-0.1z"/>
		</g>
		<path id="&lt;Path&gt;" class="s43" d="m472.8 170.3h-11.9v-14.9h11.9z"/>
		<path id="&lt;Path&gt;" class="s43" d="m577.3 130.8h-7.3v-14.9h7.3z"/>
		<g id="&lt;Group&gt;">
			<path id="&lt;Path&gt;" class="s44" d="m304.4 306.1q-0.1 0-0.2 0c-6.5-0.3-14.1 9.3-30.2 23.4-16.1 14.2-22.9 29.4-23.7 28.3-0.9-1.2-7.4-11.6-5.1-22.6 2.2-11 17.8-19.5 22.3-23.2 4.5-3.7 33.3-17.2 24.3-19.5-9.1-2.2-28.3 13.3-28.3 13.3-6.2 3.1-17 23.1-18.3 20.9-8.5-13.6-3.4-28.2 3.7-36.4 1.3-1.6 3.4-3 5.9-4.3-2 4.6-2.6 8.5-2.6 8.5 0 0 7.7-4.4 9.9-11.5 9.7-3.3 20.8-5.2 22.9-6.8 3.4-2.6 0.3-5.1-3.4-7.1-3.7-2-18.9 0.8-18.9 10.2 0 1.3-0.2 2.5-0.6 3.7-2.6 0.9-5.1 1.9-7.3 3q0.2-0.3 0.3-0.5c2.2-4.8-2.3-17.3 0-21.2 2.2-4 9-8.2 12.7-13.6 3.6-5.3 5.3-12.4 21.2-12.7q0 0 0.1 0c21.4 17.6 15.5 44 15.3 68.1z"/>
			<path id="&lt;Path&gt;" class="s44" d="m252.2 294.5c0 0 0.6-3.9 2.6-8.5 2.2-1.1 4.7-2.1 7.3-3-2.2 7.1-9.9 11.5-9.9 11.5z"/>
			<path id="&lt;Path&gt;" class="s44" d="m304.5 312.4c0.3 5.8 1.1 11.3 2.9 16.5q0 0-0.1 0.1c-5.4 3-14.7 13.5-21.2 23.1-5.4 8-8.7 35.3-8.7 35.3 0 0-17-12.7-18.1-17.8-1.1-5.1 8.8-20.9 10.5-24.3 1.6-3.3 26.2-25.4 30.2-28.5 1.4-1.1 3.1-2.7 4.5-4.4z"/>
			<path id="&lt;Path&gt;" class="s44" d="m346.9 328.4q2.6 1.2 5.6 2.5c14.1 6.3 26 19.2 29.1 28 2.4 6.9 3.4 19.2 3.4 19.2l-16.7 14.4c0 0-5.1-23.1-11.6-35-6.1-11.1-12.4-15.5-16.1-14.4-3.6 1.1-1.7 4.5 11.9 17.8 13.6 13.3 13.3 33 12.4 34.7-0.8 1.7-16.1 19.5-13.2 11.3 2.8-8.2-4.3-35.6-11.3-39.8-7.1-4.2-5.1 3.9-5.1 3.9 1.4 2.9 13.8 37.3 7.3 35.9-9.6-2.1-16.6 15.8-17.8 7.1-1.1-8.8-19.2-7.9-19.2-7.9 0 0 8.5-32.8 10.5-38.2 1.9-5.3-0.9-10.1-6.3-2.8-5.4 7.4-10.7 37.6-10.7 37.6 0 0-18.9-5.1-19.8-11.3-1.3-8.5 7.7-24.3 12.8-34.5 3.9-7.9 13.7-15.7 18.7-20.8 8.1 10.9 27.4 5 36.1-7.7z"/>
			<path id="&lt;Path&gt;" class="s44" d="m412.1 307.2c-2.6 2.3-5.3 20-5.3 20-3.6-19.3-27.3-27.8-33.4-31.8-5.1-3.4-17.6-4.7-24.8-5.2-5.5-23-16.4-45.2-11.3-69 2.7-0.9 5.9-1.6 9.6-2.1 24-3.1 45.7 17.8 40.3 16.7-21.3-4.5-32.4 8.7-37.8 11-5.4 2.2-7.1 7.6-0.3 7.6 6.8 0 22.6-11.5 36.2-14.1 10.4-2 14.9 5.6 14.9 5.6 3.7 4.3 11.9 29.3 8.2 27.4-23.2-12.1-38.7-7.3-44-7.3-5.4 0-17.8 5.1-12.7 8.5 5 3.3 15.8 3.9 26.2 2.8 13.9-1.4 31.1 8.5 34.2 12.7 3 4.2 2.5 15 0 17.2z"/>
			<path id="&lt;Path&gt;" class="s44" d="m350.2 298.4c3.9 1.3 8.8 3.1 16.4 5.4 11.9 3.7 27.4 12.2 31.9 17.3 4.6 5 8.8 11.8 8.2 14.9-0.5 3.1-16.1 27.7-16.1 27.7 0 0-5.3-11.3-10.4-20.9-5.1-9.6-13.6-18.9-23.2-24.3-1.9-1-3.8-1.9-5.7-2.7 0.3-5.9-0.1-11.7-1.1-17.4z"/>
			<path id="&lt;Path&gt;" class="s45" d="m348.6 290.2c-1.4-0.1-2.6-0.2-3.4-0.2-5.7-0.3-6 5.5-0.6 6.8 1.7 0.4 3.5 0.9 5.6 1.6 1 5.7 1.4 11.5 1.1 17.4-6.5-2.4-12.6-2.9-15.5 0.2-3.1 3.4 1 7.4 11.1 12.4-8.7 12.7-28 18.6-36.1 7.7 1.3-1.5 2.4-2.8 2.7-3.7 1.7-4.5-0.7-6.5-6.1-3.5-1.8-5.2-2.6-10.7-2.9-16.5 2.5-3 3.8-6-0.1-6.3 0.2-24.1 6.1-50.5-15.3-68.1 15.7-0.2 26.4 18.4 26.1 23.5-0.3 5.1 2.6 7.3 2.6 7.3 1.5 0.1 2.5-0.4 3.1-1.5 2.6-4.1-0.2-15.7 0.3-23.6 0.4-8.3 2.2-17.9 16.1-22.5-5.1 23.8 5.8 46 11.3 69z"/>
			<path id="&lt;Path&gt;" class="s46" d="m327 340.9q-1 0.1-2.1 0.1c-0.4-9.8-1.1-23.4-2.3-35.9-1.8-19.5-4.8-36.3-4.8-36.3l3.1-1.5c0 0 2.1 14.1 3.5 31.1 1.1 14.5 2.1 31 2.6 42.5z"/>
			<path id="&lt;Path&gt;" class="s23" d="m327 340.9c0.3 6.8 0.5 11.8 0.5 13.5-0.2 8-1.1 64.2-1.5 62-1.6-9.8-0.4-55.5-0.7-63.1 0-2.2-0.2-6.6-0.4-12.3q1.1 0 2.1-0.1z"/>
		</g>
		<g id="&lt;Group&gt;">
			<path id="&lt;Path&gt;" class="s32" d="m140.7 449.2q0.2 0.8 0.3 1.7c-1.5 0.1-2.3 0.3-2.3 0.3z"/>
			<path id="&lt;Path&gt;" class="s35" d="m237 472.9c-50-24.6-86.8-22.9-96-22q-0.1-0.9-0.3-1.7l1.6-1.6c42.4-3.2 90.1 18.3 90.1 18.3 0 0 7.2 8.3 4.6 7z"/>
			<path id="&lt;Path&gt;" class="s32" d="m61.3 459.6c0.1 3.3 0.6 6.5 1.2 8.9-5.2 4.2-10 9.3-11.1 12.2-1.4 3.6-1.5-10.4 9.9-21.1z"/>
			<path id="&lt;Path&gt;" class="s32" d="m66.5 465.5c-1.3 0.9-2.7 1.9-4 3-0.6-2.4-1.1-5.6-1.2-8.9 4.2-3.9 9.8-7.4 17.6-9.4q1-0.3 2-0.5c-4.8 3.2-11.8 9-14.4 15.8z"/>
			<path id="&lt;Path&gt;" class="s32" d="m78.9 450.2c-7.8 2-13.4 5.5-17.6 9.4-0.2-7.7 1.7-16.2 9.3-17.9 8.6-2 13.5-3.2 17.6-3.6-1.4 3.2-2.9 6.4-4.3 9.7-0.8 0.4-1.8 1.1-3 1.9q-1 0.2-2 0.5z"/>
			<path id="&lt;Path&gt;" class="s32" d="m62.5 468.5c1.3-1.1 2.7-2.1 4-3-0.6 1.5-0.9 3.1-1 4.7-0.2 4.7-1.8 2.8-3-1.7z"/>
			<path id="&lt;Path&gt;" class="s32" d="m130 478.1c3.3-4.4 6.1-9 8.2-13.3 5.8 6.7 14 14 16.7 15.9 5.3 3.8-9 16.3-16.2 17.7-4.2 0.9-6.7-10.4-8.7-20.3z"/>
			<path id="&lt;Path&gt;" class="s32" d="m123.6 485.5c1.5 14 2.8 33.3 2.6 34.2-0.3 1.3-18.3 9.6-18.3 9.6 0 0 2.7-19.3 4-35.1 4.2-2.1 8.1-5.1 11.7-8.7z"/>
			<path id="&lt;Path&gt;" class="s34" d="m138.3 441.8c1.7 3.9 2.8 7.8 2.9 11.8-2.4-1.1-4.6-1.7-6.6-1.5-5.3 0.6-1.9 6.4 3.6 12.7-2.1 4.3-4.9 8.9-8.2 13.3-1.4-6.6-2.5-12.6-3.8-13.8-3.3-3.2-7 1.4-4.8 7.8 0.7 1.9 1.5 7.1 2.2 13.4-3.6 3.6-7.5 6.6-11.7 8.7 0.8-9 1.1-16.9 0.1-19.5-2.6-7.2-6.4-5.6-6 3.4 0.1 3.8-0.3 11-0.6 18.4-4.6 1-9.2 0.5-13.8-1.9-1-8.4-1.3-10.1-5.6-6.2q-0.5 0.5-1.1 1.4c-5.7-5.1-7.8-10.9-7.9-17.1 4.5-4.6 7.9-8.5 7.5-8.4-0.5 0.1-2.5-1.9-5.8-2.6 1.1-4.1 2.8-8.4 4.7-12.7 22-5.8 2.2-2.2 2.2-2.2 0 0-0.6 0.3-1.7 1 1.4-3.3 2.9-6.5 4.3-9.7 3.9-0.4 7.1 0.1 12.1 1.6 10.2 3 6.1 7.1 21.1 3 0 0 8.4-1.4 16.9-0.9z"/>
			<path id="&lt;Path&gt;" class="s32" d="m165 470.6c0.4 3.1-13-12.1-23.8-17-0.1-4-1.2-7.9-2.9-11.8 5.9 0.3 11.9 1.6 15.1 5 7.9 8.3 11.1 20 11.6 23.8z"/>
			<path id="&lt;Path&gt;" class="s32" d="m83.4 449c-1.9 4.3-3.6 8.6-4.7 12.7-1.7-0.3-3.8-0.3-6.2 0.6-1.8 0.6-3.9 1.8-6 3.2 2.6-6.8 9.6-12.6 14.4-15.8q1.3-0.4 2.5-0.7z"/>
			<path id="&lt;Path&gt;" class="s32" d="m105.4 496.5c-0.5 10.1-0.8 20.6 0.6 23.9 2.3 5.7-16.2 9.3-23 8.9-6.8-0.4 10.6-19.2 9-30.9q-0.2-2.1-0.4-3.8c4.6 2.4 9.2 2.9 13.8 1.9z"/>
			<path id="&lt;Path&gt;" class="s32" d="m84.9 489.8c-4.5 7.4-9.1 32.7-13.9 36.9-5.3 4.5-14-8-21.1-7-7.2 0.9-0.8-17.8-4.5-21.2-3.8-3.5 7.9-12.4 14.6-13 3.8-0.4 11.3-7 17-12.8 0.1 6.2 2.2 12 7.9 17.1z"/>
		</g>
		<g id="&lt;Group&gt;">
			<path id="&lt;Path&gt;" class="s37" d="m357 371c0.1-0.2 0.2-0.4 0.4-0.6 8.3-0.6 16.2-0.2 19-0.1 4.3 0.1 12.2 5.9 7.6 6.5-4.6 0.6-10.5 2-20.3 3.1-3.5 0.4-6.7 1.1-9.5 2 0.6-3.7 1.5-7.3 2.8-10.9z"/>
			<path id="&lt;Path&gt;" class="s37" d="m281.1 404.9c-3.8-0.8-8.5-1.7-14.7-2.9-16.3-3-38.2 8.1-38.2 8.1 0 0-9.1-0.3 7.5-21.4 16.7-21.2 41.5-7.7 46.6-5.1 5.1 2.5 11.3 1.7 10.8-2.8-0.6-4.6-15.3-10.2-15-17 0.3-6.8 23.1-17.5 33.6-6.5 1.1 1.1 2 2.3 2.8 3.5-3.3 19.8-21.3 30.3-33.4 44.1z"/>
			<path id="&lt;Path&gt;" class="s37" d="m314.8 482.2c12 27.1 10.2 50.4 10.2 50.4 0 0 2.2 4.2-20.4 0-27.3-5.2-29.9 9.7-28.2 1.8 2.5-11.7-16.7-19.5-16.7-19.5l2.9-11c2.7-1.3 23.7-24.3 18.6-25.7-15.3-4.3-21.7 36.7-25.4 31.9-3.7-4.8-14.1-14.7-12.7-19.8 1.4-5.1 25.7-25.7 32.2-27.9 1.7-0.6 3.7-1.4 5.7-2.4 1.8 5.5 3.8 10.8 8 15 7.3 8.1 16.7 9.7 25.8 7.2z"/>
			<path id="&lt;Compound Path&gt;" fill-rule="evenodd" class="s47" d="m353.2 404.8c-2.4 0.5-4.3 1.3-5.4 2.5-2 2.2 0.6 3.2 5.6 4.5 0.2 5.4 0.4 10.7 0.2 16-2-1-4.1-1.8-6.3-2.4-12.7-3.4-3.1 6.5-2.3 6.8 0.3 0 3.5 2.1 7.7 5-0.9 6.1-2.6 12.1-5.7 17.8q-0.5 1-1.1 2c-6.1-7.5-12.9-14.3-17.5-15-9.9-1.4-9.6 5.4-2 11.1 4 2.9 8.3 7 13.3 12.6-4 4.7-8.9 8.8-14.2 12-2.8-4.7-5-7.7-5-7.7-2-3.7-14.7-5.1-10.2 3.1q2.5 4.6 4.5 9.1c-9.1 2.5-18.5 0.9-25.8-7.2-4.2-4.2-6.2-9.5-8-15 5.8-2.8 11.8-7 11.8-11.2 0-4.9-7-1.5-14.8 2.4-0.8-2.1-1.8-4.2-3-6.2-2-2.7-3.3-5.7-4-9q1.1-0.1 2.6-0.5c7.7-1.9 11.8-4.5 9-7.9-2.2-2.6-9.3 1.1-12.4 2.8-0.1-4.8 0.9-9.6 2.8-13.4q1-2.2 2.3-4.3c5.1-0.2 9.5-0.2 12.2-0.1 7.6 0.3 7.2-1.7 7.2-1.7-0.9-2.3-3.4-3.7-13.6-6 12.1-13.8 30.1-24.3 33.4-44.1 7.4 10.2 6.4 21.5 2.8 25-3.9 4 1.2 8.8 1.2 8.8 0 0 6 1.7 6.9-3 2.1-10.5 7.2-15.1 18.5-18.8 4-1.3 8.8-2 13.5-2.4-0.2 0.2-0.3 0.4-0.4 0.6-1.3 3.6-2.2 7.2-2.8 10.9-5.1 1.6-8.5 3.8-8.9 5.6-0.4 1.9 4.2 2.2 8.1 1.8-0.4 5.2-0.4 10.3-0.2 15.5zm-21.7 15.5c-2.3-4-9.4-3.1-9.4-3.1v1.5c1.7 7.2 11.6 5.5 9.4 1.6z"/>
			<path id="&lt;Path&gt;" class="s37" d="m404 423.1c-13.2-13.5-23.1-14.7-32.4-17.2-6.4-1.7-13.4-2.2-18.4-1.1-0.2-5.2-0.2-10.3 0.2-15.5 1.9-0.2 3.6-0.5 4.6-0.9 4.2-1.7 18.1-6.5 26.3-5.4 8.2 1.1 13.5 11 13.5 11 0 0.9 9 32 6.2 29.1z"/>
			<path id="&lt;Path&gt;" class="s37" d="m353.4 411.8c3.5 1 8.2 2.1 13.4 4 12.7 4.5 33.9 9 35.6 17.8 2.5 13-7.7 38.9-7.7 38.9 0 0-2.8-8.7-7.9-13.5-5.1-4.8-14.7-16.1-16.9-18.1-1.9-1.6-7.4-8.8-16.3-13.1 0.2-5.3 0-10.6-0.2-16z"/>
			<path id="&lt;Path&gt;" class="s37" d="m339.7 465.7c4.4 5.1 9.5 11.3 15.5 19 12.7 16.4 9 26.2 8.2 26.5-0.9 0.3-13.3 17.3-14.7 13.9-1.4-3.4-9-12.2-13.3-26.3-2.3-7.7-6.5-15.6-9.9-21.1 5.3-3.2 10.2-7.3 14.2-12z"/>
			<path id="&lt;Path&gt;" class="s37" d="m347 455c3.1-5.7 4.8-11.7 5.7-17.8 8.4 5.8 20.9 14.6 23.7 17.8 4.2 4.8 11.8 20.9 10.1 23.2-1.7 2.2-14.4 25.1-14.4 25.1 0 0-9-20.3-11.5-25.4-1.4-2.7-7.6-12.3-14.7-20.9q0.6-1 1.1-2z"/>
			<path id="&lt;Compound Path&gt;" fill-rule="evenodd" class="s37" d="m275 445c1.2 2 2.2 4.1 3 6.2q-1.8 0.9-3.6 1.9c-9 4.5-40.4 33.8-40.4 33.8 0 0-3.4-3.6-6.2-15.5-2.8-11.9 8.5-8.1 4.3-15.8-6.7-12-5.8-18.6-3.3-24.2 2.4-5.7 7.3-11.6 16.9-14.7 8.1-2.6 20.1-3.7 29.6-4q-1.3 2.1-2.3 4.3c-1.9 3.8-2.9 8.6-2.8 13.4-0.9 0.5-1.4 0.9-1.4 0.9-2.2 3.1-1.8 5.1 2.2 4.7 0.7 3.3 2 6.3 4 9zm-14.4-8.9c-9.3 0-9.9 5.7-9.9 5.7 0 0 5.6 0 9.9-1.7 4.2-1.7 0-4 0-4z"/>
		</g>
		<path id="&lt;Path&gt;" class="s48" d="m322 394.9c-3.8 3.2-13 25.6-22 79.6-9.1 54.1-18.7 53.9-16.1 50.3 2.6-3.7 9.6-14.1 12.1-48.9 0.4-4.5 0.7-10.8 1.7-15.5 7-32.2 20.8-66.3 20.8-66.3z"/>
		<path id="&lt;Path&gt;" class="s43" d="m468.9 187.4h-4.2v-187.3h4.2z"/>
		<path id="&lt;Path&gt;" class="s49" d="m450.8 278h-11.9v-85.4c0-15.5 12.5-28 27.9-28 1.6 0 3.1 0.2 4.6 0.4-25.1 30-24.2 71.7-20.6 113z"/>
		<path id="&lt;Path&gt;" class="s50" d="m450.8 278h-11.9v-85.4c0-15.5 12.5-28 27.9-28 1.6 0 3.1 0.2 4.6 0.4-25.1 30-24.2 71.7-20.6 113z"/>
		<path id="&lt;Path&gt;" class="s37" d="m344.8 496.1l3.4-2.4c0 0 7.6 10.9 25.4 25.2 6.6 5.3 38.4 30.6 44.7 35 3.1 2.1-28-18.2-40-28.7-12-10.4-33.5-29.1-33.5-29.1z"/>
		<path id="&lt;Path&gt;" class="s49" d="m494.8 278h-44c-3.6-41.3-4.5-83 20.6-113 13.3 2.2 23.4 13.7 23.4 27.6z"/>
		<path id="&lt;Path&gt;" class="s43" d="m574.9 140.7h-2.6v-140.1h2.6z"/>
		<path id="&lt;Path&gt;" class="s49" d="m594.9 209.7h-42.6v-65.1c0-11.7 9.6-21.3 21.3-21.3 11.8 0 21.3 9.6 21.3 21.3z"/>
		<path id="&lt;Path&gt;" class="s51" d="m1216 517.4h-203.5l20-11.3h163.5z"/>
		<g id="&lt;Group&gt;">
			<g id="&lt;Group&gt;">
				<g id="&lt;Group&gt;">
					<path id="&lt;Path&gt;" class="s52" d="m1160.4 511.8h-128.8v-166.9h128.8z"/>
					<path id="&lt;Path&gt;" class="s3" d="m1154.6 505.3h-117.3v-154.6h117.3z"/>
				</g>
				<g id="&lt;Group&gt;">
					<path id="&lt;Path&gt;" class="s2" d="m1110.7 385.5c0 5-4 9.1-9 9.1-5 0-9-4.1-9-9.1 0-4.9 4-9 9-9 5 0 9 4.1 9 9z"/>
					<path id="&lt;Path&gt;" class="s2" d="m1088.2 382.1c0 3-2.4 5.5-5.5 5.5-3.1 0-5.6-2.5-5.6-5.5 0-3.1 2.5-5.6 5.6-5.6 3.1 0 5.5 2.5 5.5 5.6z"/>
					<path id="&lt;Path&gt;" class="s2" d="m1098.9 414.3c0 4.3-3.5 7.9-7.9 7.9-4.3 0-7.9-3.6-7.9-7.9 0-4.4 3.6-7.9 7.9-7.9 4.4 0 7.9 3.5 7.9 7.9z"/>
					<path id="&lt;Path&gt;" class="s2" d="m1115.7 409.3c0 3.3-2.7 6.1-6.1 6.1-3.4 0-6.1-2.8-6.1-6.1 0-3.4 2.7-6.2 6.1-6.2 3.4 0 6.1 2.8 6.1 6.2z"/>
					<path id="&lt;Path&gt;" class="s2" d="m1094.7 433.3c0 4.5-3.6 8.1-8.1 8.1-4.5 0-8.1-3.6-8.1-8.1 0-4.5 3.6-8.1 8.1-8.1 4.5 0 8.1 3.6 8.1 8.1z"/>
					<path id="&lt;Path&gt;" class="s2" d="m1120.9 430.3c0 4.4-3.6 7.9-7.9 7.9-4.4 0-7.9-3.5-7.9-7.9 0-4.4 3.5-7.9 7.9-7.9 4.3 0 7.9 3.5 7.9 7.9z"/>
					<g id="&lt;Group&gt;">
						<path id="&lt;Path&gt;" class="s2" d="m1093.7 486.8c-0.2-2-4.5-50.7 13.2-54.5l0.4 2c-16 3.4-11.6 51.9-11.6 52.4z"/>
					</g>
					<g id="&lt;Group&gt;">
						<path id="&lt;Path&gt;" class="s2" d="m1096.5 452.8l-2-0.2c1.1-9.6-4-13.6-4.1-13.6l1.2-1.6c0.3 0.2 6.1 4.7 4.9 15.4z"/>
					</g>
					<g id="&lt;Group&gt;">
						<path id="&lt;Path&gt;" class="s2" d="m1098.2 445.5l-2-0.1c1.7-44.1-13.6-60.7-13.8-60.8l1.5-1.4c0.6 0.7 16 17.2 14.3 62.3z"/>
					</g>
					<g id="&lt;Group&gt;">
						<path id="&lt;Path&gt;" class="s2" d="m1093.1 415.5c-2.7-15.8 4.8-23.4 5.1-23.7l1.4 1.5c0 0-7 7.1-4.5 21.9z"/>
					</g>
					<g id="&lt;Group&gt;">
						<path id="&lt;Path&gt;" class="s2" d="m1096 428c-0.1-7.7 1.4-13 4.4-15.6 2.3-2.1 4.7-1.8 4.8-1.8l-0.3 2 0.2-1-0.2 1c0 0-1.6-0.2-3.2 1.3-1.8 1.6-3.8 5.3-3.7 14.1z"/>
					</g>
				</g>
				<path id="&lt;Path&gt;" class="s53" d="m1154.6 350.7l5.8-5.8v166.9l-5.8-6.5z"/>
				<path id="&lt;Path&gt;" class="s54" d="m1037.3 504.9l-5.7 6.5v-166.8l5.7 5.7z"/>
			</g>
			<path id="&lt;Path&gt;" class="s55" d="m1160.2 354.8l27.4 150.5h-27.2z"/>
		</g>
		<g id="&lt;Group&gt;">
			<path id="&lt;Path&gt;" class="s56" d="m1221.6 516.7h-101.7v-22.5h101.7z"/>
			<path id="&lt;Path&gt;" class="s57" d="m1230.1 494.2h-97.7v-10.6h97.7z"/>
			<path id="&lt;Path&gt;" class="s58" d="m1216.1 486h-96.1v-12h96.1z"/>
			<path id="&lt;Path&gt;" class="s56" d="m1221.7 474h-101.7v-11.2h101.7z"/>
			<path id="&lt;Path&gt;" class="s57" d="m1233.7 462.8h-94.9v-9.8h94.9z"/>
		</g>
		<g id="&lt;Group&gt;">
			<path id="&lt;Path&gt;" class="s59" d="m934.6 267.3c0 61-49.5 110.5-110.4 110.5-61 0-110.5-49.5-110.5-110.5 0-61 49.5-110.4 110.5-110.4 60.9 0 110.4 49.4 110.4 110.4z"/>
			<path id="&lt;Path&gt;" class="s60" d="m922.6 258.1c0 58.4-47.4 105.8-105.9 105.8-58.4 0-105.8-47.4-105.8-105.8 0-58.5 47.4-105.9 105.8-105.9 58.5 0 105.9 47.4 105.9 105.9z"/>
			<path id="&lt;Path&gt;" class="s3" d="m917.4 272.2h-201.4c-0.6-4.6-1-9.3-1-14.1 0-56.2 45.6-101.7 101.7-101.7 56.2 0 101.7 45.5 101.7 101.7 0 4.8-0.3 9.5-1 14.1z"/>
			<path id="&lt;Path&gt;" class="s61" d="m917.4 272.2c-6.8 49.5-49.3 87.6-100.7 87.6-51.3 0-93.8-38.1-100.7-87.6z"/>
			<g id="&lt;Group&gt;">
				<g id="&lt;Group&gt;">
					<path id="&lt;Path&gt;" class="s60" d="m842.9 192.5h3l-45.2 83.6-6.8-2.6z"/>
				</g>
				<g id="&lt;Group&gt;">
					<path id="&lt;Path&gt;" class="s60" d="m880.4 313.2v2.5l-90.8-72.1 4.3-4.2z"/>
				</g>
				<g id="&lt;Group&gt;">
					<path id="&lt;Path&gt;" class="s60" d="m803.8 332.8l-2-0.1 8.1-114.7 2 0.1z"/>
				</g>
			</g>
			<g id="&lt;Group&gt;">
				<path id="&lt;Compound Path&gt;" fill-rule="evenodd" class="s61" d="m814.5 164.5v21.8h-1.6v-20.1h-1.4v-1.7zm-2.8 0.2v1.3h1.3v20.2h1.4v-21.5zm2.4 0.2v21h-0.8v-20.2h-1.4v-0.8z"/>
				<path id="&lt;Compound Path&gt;" fill-rule="evenodd" class="s61" d="m824.2 171.9c-0.1 1.5-1.5 2.9-3.1 4.3-1.4 1.4-2.7 2.7-2.8 3.9v4.5h5.9v1.7h-7.6v-6.2c0.1-2 1.8-3.6 3.4-5.1 1.3-1.1 2.5-2.4 2.5-3.1v-3.4c0-1.9-1-2.5-2-2.5-1.4 0-2.1 1.1-2.1 2.6v1.7h-1.6v-1.7c0-3.1 2-4.3 3.7-4.3 1.6 0 3.7 1.1 3.7 4.2zm-0.2-3.4c0-3-2-4-3.5-4-1.7 0-3.5 1.2-3.5 4.1v1.6h1.2v-1.5c0-1.7 0.8-2.8 2.3-2.8 1.1 0 2.2 0.6 2.2 2.7v3.3c0 0.8-1.3 2.1-2.5 3.2-1.6 1.5-3.3 3.2-3.4 5v6.1h7.2v-1.4h-5.9v-4.7c0.1-1.3 1.5-2.6 2.9-3.9 1.6-1.4 3-2.8 3-4.3zm-0.3 3.4c0 1.4-1.4 2.6-2.9 4-1.4 1.4-2.9 2.7-2.9 4.2 0 0.3 0 3.5 0 5h5.8v0.8h-6.6c0-0.5 0-5.4 0-5.8 0.1-1.8 1.6-3.3 3.2-4.8 1.3-1.1 2.7-2.5 2.7-3.4v-3.4c0-2.3-1.3-3-2.5-3-1.7 0-2.5 1.3-2.5 3.1v1.2h-0.8v-1.2c0-2.7 1.7-3.8 3.3-3.8 1.4 0 3.2 0.9 3.2 3.7z"/>
			</g>
			<g id="&lt;Group&gt;">
				<path id="&lt;Compound Path&gt;" fill-rule="evenodd" class="s61" d="m901.6 258.1h1.2c1.4-0.1 2.1-1.4 2.1-2.9v-4.5c0-1.7-0.8-2.5-1.9-2.5-1.5 0-2.3 1-2.3 2.6v1.7h-1.5v-1.8c0-3.3 2-4.2 3.8-4.2 1.9 0 3.6 1.3 3.6 4.2v4.5c0 1.9-0.5 2.8-1.5 3.6 1.3 0.8 1.7 2.5 1.7 4.2v1.2c0 2.5-1.4 4.6-3.9 4.6-2.3 0-4-1.9-4-4.6v-1.9h1.6v1.9c0 1.7 0.9 2.9 2.4 2.9 1.4 0 2.3-1.2 2.3-2.9v-1.2c0-1.7-0.6-3.2-2.4-3.2h-1.2zm0.2 1.6h1c1.9 0 2.6 1.5 2.6 3.3v1.2c0 1.8-1 3.1-2.5 3.1-1.6 0-2.5-1.3-2.5-3.1v-1.8h-1.3v1.8c0 2.7 1.6 4.5 3.8 4.5 2.4 0 3.8-2 3.8-4.5v-1.2c0-1.9-0.6-3.4-1.9-4.1 1.2-0.9 1.6-2.1 1.6-3.7v-4.5c0-2.8-1.6-4-3.4-4-1.7 0-3.7 0.9-3.7 4v1.6h1.3v-1.5c0-1.7 0.8-2.7 2.4-2.7 1.1 0 2.1 0.8 2.1 2.6v4.5c0 1.6-0.8 3-2.3 3.1h-1zm0.3-1.2h0.7c1.7 0 2.6-1.6 2.6-3.3v-4.5c0-2-1.1-3-2.4-3-1.7 0-2.7 1.2-2.7 3.1v1.2h-0.7v-1.3c0-2.9 1.8-3.7 3.4-3.7 1.7 0 3.1 1.1 3.1 3.7v4.5c0 1.6-0.6 2.9-1.9 3.7 1.5 0.6 2.2 2 2.2 4.1v1.2c0 2.3-1.3 4.2-3.5 4.2-2.1 0-3.5-1.7-3.5-4.2v-1.5h0.7v1.5c0 2 1 3.3 2.8 3.3 1.7 0 2.8-1.3 2.8-3.3v-1.2c0-1.9-0.8-3.7-2.9-3.7h-0.7z"/>
			</g>
			<g id="&lt;Group&gt;">
				<path id="&lt;Compound Path&gt;" fill-rule="evenodd" class="s61" d="m732.4 261.8v2.4c-0.1 2.5-1.4 4.5-4 4.5-2.5 0-4-2-4-4.5v-13.1c0-2.6 1.6-4.5 4-4.5 2.5 0 3.9 1.8 3.9 4.6v1.1h-1.6v-1.1c0-1.7-0.8-3-2.3-3-1.4 0-2.3 1.1-2.4 2.9v7.1c0.7-0.6 1.7-1 2.5-1 2.3 0 3.9 1.6 3.9 4.6zm-6.5-3.2v-7.5c0-1.9 1-3 2.5-3 1.6 0 2.4 1.3 2.4 3.1v1h1.3v-1c0-2.7-1.3-4.5-3.7-4.5-2.3 0-3.8 1.9-3.8 4.4v13.1c0 2.5 1.3 4.4 3.8 4.4 2.5 0 3.7-1.9 3.8-4.4v-2.4c0-2.8-1.5-4.4-3.7-4.4-0.9 0-1.9 0.4-2.6 1.2zm6 3.2v2.4c0 2.3-1.2 4.1-3.5 4.1-2.3 0-3.5-1.8-3.5-4.1 0-3.4 0-10.3 0-13.1 0-2.3 1.4-4.1 3.5-4.1 2.3 0 3.4 1.7 3.4 4.2v0.7h-0.7v-0.7c0-2-0.9-3.4-2.7-3.4-1.7 0-2.7 1.2-2.8 3.3v8.3c0.7-1.1 1.8-1.7 2.9-1.7 2.1 0 3.4 1.4 3.4 4.1zm-0.7 0c0-2.3-1-3.3-2.7-3.3-1.8 0-2.9 1.5-2.9 3.3 0-0.1 0 1.7 0 2.4 0 1.7 1 3.2 2.8 3.2 1.8 0 2.8-1.5 2.8-3.3zm-0.3 2.3c0 1.7-0.8 3.1-2.5 3.1-1.6 0-2.5-1.4-2.5-3v-2.4c0-1.7 0.9-3.1 2.6-3.1 1.6 0 2.4 1 2.4 3.1zm-0.2-2.3c0-2-0.8-2.9-2.2-2.9-1.6 0-2.5 1.3-2.5 2.9v2.4c0 1.5 0.9 2.8 2.4 2.8 1.6 0 2.3-1.3 2.3-2.9z"/>
			</g>
			<g id="&lt;Group&gt;">
				<path id="&lt;Compound Path&gt;" fill-rule="evenodd" class="s62" d="m821.8 348.4c0 2.6-1.4 4.6-4 4.6-2.4 0-3.9-2.1-3.9-4.6v-1.2h1.6v1.2c0 1.6 0.8 2.9 2.3 2.9 1.6 0 2.5-1.3 2.5-2.9v-4.7c-0.6 0.6-1.5 1.2-2.4 1.2-3.1 0-4-3-4-5.6v-3.1c0-2.6 1.1-5.4 4-5.4 2.9 0 3.9 2.6 3.9 5.4zm-0.1-12.1c0-2.8-1.1-5.3-3.8-5.3-2.8 0-3.9 2.7-3.9 5.3v3c0 2.6 0.9 5.5 3.9 5.5 1 0 2-0.7 2.5-1.5v5.1c0 1.7-0.9 3.1-2.6 3.1-1.6 0-2.4-1.4-2.4-3.1v-1.1h-1.3v1.1c0 2.4 1.4 4.5 3.7 4.5 2.5 0 3.9-1.9 3.9-4.5zm-0.3 12.2c0 2.4-1.3 4.1-3.6 4.1-2.2 0-3.5-1.9-3.5-4.1v-0.8h0.8v0.8c0 1.8 1 3.3 2.7 3.3 1.9 0 2.9-1.5 2.9-3.3v-6.3c-0.4 1.2-1.4 2.3-2.8 2.3-2.8 0-3.6-2.7-3.6-5.1 0-1 0-1.9 0-3.1 0-2.4 1-5 3.6-5 2.5 0 3.5 2.4 3.5 5zm-0.8-12.1c0-2-0.5-4.2-2.7-4.2-2 0-2.8 2.2-2.8 4.2 0 1.9 0 0.3 0 3 0 1.7 0.5 4.3 2.8 4.3 2 0 2.7-2.5 2.7-4.3zm-0.2 3c0 1.6-0.8 4-2.5 4-2.1 0-2.5-2.4-2.5-4v-3.1c0-1.8 0.7-3.8 2.5-3.8 2 0 2.5 2 2.5 3.9zm-0.2-3c0-1.8-0.5-3.8-2.3-3.8-1.7 0-2.4 2-2.4 3.8v3c0 1.5 0.4 3.9 2.4 3.9 1.6 0 2.3-2.3 2.3-3.9z"/>
			</g>
		</g>
		<path id="&lt;Path&gt;" class="s50" d="m561.3 209.4h-9v-64.7c0-11.7 9.5-21.1 21.2-21.1q1.8 0 3.4 0.3c-19 22.7-18.3 54.3-15.6 85.5z"/>
		<path id="&lt;Path&gt;" class="s49" d="m1019.9 693.5l-7.4 5.2v-181.3l7.4 5.3z"/>
		<path id="&lt;Path&gt;" class="s63" d="m1209.2 522.7l7.4-5.3v181.3l-7.4-5.2z"/>
		<path id="&lt;Path&gt;" class="s64" d="m1221.7 462.8h12l-17.6 23.2v-12h5.6z"/>
		<path id="&lt;Path&gt;" class="s64" d="m1221.7 494.2h8.1l-8.1 11.2z"/>
		<g id="&lt;Group&gt;">
			<path id="&lt;Path&gt;" class="s65" d="m637.4 798.3c-0.1-1.3-9.1-133.4-9.6-138.8q-0.1-0.7-0.2-1.6c-0.4-5.9-1.1-15-21.1-20.3-9.3-2.5-25.1-5.7-41.9-9-24.1-4.8-49.1-9.8-59.2-13.6-19.8-7.5-33.6-33.7-41.6-54.3-6.7-17.4-14.8-53.1-21.3-81.8-4.8-21.2-9-39.6-11.3-44.9-5.6-12.8-17.4-10.9-17.6-10.9l-0.3-1.9c0.1 0 13.6-2.2 19.7 12 2.4 5.5 6.6 23.9 11.4 45.3 6.5 28.6 14.6 64.2 21.3 81.4 11.3 29.1 25.3 47.5 40.4 53.2 9.9 3.8 34.8 8.7 58.9 13.5 16.8 3.4 32.7 6.5 42 9 21.4 5.7 22.2 16 22.6 22.2q0.1 0.8 0.2 1.5c0.5 5.5 9.3 133.5 9.6 138.9z"/>
		</g>
		<path id="&lt;Path&gt;" class="s37" d="m93.7 464.8c-7.3 9.5-26.7 27.2-25.9 26.5 4.7-4.5 17.7-18.5 23-25 5.4-6.5 17.2-22.8 19.4-22.1 1.1 0.4 2.9 0.2 2.9 0.2-4 1.5-12.3 11.1-19.4 20.4z"/>
	</g>
</svg>